<svg width="40" height="40" viewBox="0 0 40 40" fill="none" xmlns="http://www.w3.org/2000/svg">
<mask id="mask0_13_1999" style="mask-type:alpha" maskUnits="userSpaceOnUse" x="0" y="0" width="40" height="40">
<rect width="40" height="40" fill="#D9D9D9"/>
</mask>
<g mask="url(#mask0_13_1999)">
<path d="M8.44058 34.1668C7.72419 34.1668 7.11058 33.9114 6.59975 33.4006C6.08891 32.8897 5.8335 32.2761 5.8335 31.5597V8.44058C5.8335 7.72419 6.08891 7.11058 6.59975 6.59975C7.11058 6.08891 7.72419 5.8335 8.44058 5.8335H31.5597C32.2761 5.8335 32.8897 6.08891 33.4006 6.59975C33.9114 7.11058 34.1668 7.72419 34.1668 8.44058V31.5597C34.1668 32.2761 33.9114 32.8897 33.4006 33.4006C32.8897 33.9114 32.2761 34.1668 31.5597 34.1668H8.44058ZM9.656 22.0193L16.5706 15.1047L23.4402 21.9747L30.3272 15.0877L32.0727 16.8335V8.44058C32.0727 8.29086 32.0246 8.16794 31.9285 8.07183C31.8324 7.97572 31.7095 7.92766 31.5597 7.92766H8.44058C8.29086 7.92766 8.16794 7.97572 8.07183 8.07183C7.97572 8.16794 7.92766 8.29086 7.92766 8.44058V20.291L9.656 22.0193ZM8.44058 32.0727H31.5597C31.7095 32.0727 31.8324 32.0246 31.9285 31.9285C32.0246 31.8324 32.0727 31.7095 32.0727 31.5597V19.8077L30.3272 18.0622L23.4402 24.9489L16.5706 18.0793L9.656 24.9831L7.92766 23.2652V31.5597C7.92766 31.7095 7.97572 31.8324 8.07183 31.9285C8.16794 32.0246 8.29086 32.0727 8.44058 32.0727ZM7.92766 32.0727V19.8077V21.9018V7.92766V32.0727Z" fill="#959595"/>
</g>
</svg>
