<svg width="40" height="40" viewBox="0 0 40 40" fill="none" xmlns="http://www.w3.org/2000/svg">
<mask id="mask0_13_2034" style="mask-type:alpha" maskUnits="userSpaceOnUse" x="0" y="0" width="40" height="40">
<rect width="40" height="40" fill="#D9D9D9"/>
</mask>
<g mask="url(#mask0_13_2034)">
<path d="M19.9998 37.3718L14.3673 31.7222H25.6494L19.9998 37.3718ZM6.77359 27.5002C6.0572 27.5002 5.44359 27.2447 4.93275 26.7339C4.42192 26.2231 4.1665 25.6095 4.1665 24.8931V8.44058C4.1665 7.72419 4.42192 7.11058 4.93275 6.59975C5.44359 6.08891 6.0572 5.8335 6.77359 5.8335H33.2261C33.9425 5.8335 34.5561 6.08891 35.0669 6.59975C35.5778 7.11058 35.8332 7.72419 35.8332 8.44058V24.8931C35.8332 25.6095 35.5778 26.2231 35.0669 26.7339C34.5561 27.2447 33.9425 27.5002 33.2261 27.5002H6.77359ZM6.77359 25.406H33.2261C33.3544 25.406 33.4721 25.3527 33.579 25.246C33.6857 25.1391 33.739 25.0214 33.739 24.8931V8.44058C33.739 8.31225 33.6857 8.19461 33.579 8.08766C33.4721 7.981 33.3544 7.92766 33.2261 7.92766H6.77359C6.64525 7.92766 6.52762 7.981 6.42067 8.08766C6.314 8.19461 6.26067 8.31225 6.26067 8.44058V24.8931C6.26067 25.0214 6.314 25.1391 6.42067 25.246C6.52762 25.3527 6.64525 25.406 6.77359 25.406ZM13.6044 23.0343H26.4123V20.4918H13.6044V23.0343ZM8.46359 17.9381H11.0061V15.3956H8.46359V17.9381ZM13.6044 17.9381H16.1473V15.3956H13.6044V17.9381ZM18.7286 17.9381H21.2711V15.3956H18.7286V17.9381ZM23.8694 17.9381H26.4123V15.3956H23.8694V17.9381ZM28.9936 17.9381H31.5361V15.3956H28.9936V17.9381ZM8.46359 12.8314H11.0061V10.2885H8.46359V12.8314ZM13.6044 12.8314H16.1473V10.2885H13.6044V12.8314ZM18.7286 12.8314H21.2711V10.2885H18.7286V12.8314ZM23.8694 12.8314H26.4123V10.2885H23.8694V12.8314ZM28.9936 12.8314H31.5361V10.2885H28.9936V12.8314Z" fill="#959595"/>
</g>
</svg>
